<svg xmlns="http://www.w3.org/2000/svg" version="1.1" xmlns:xlink="http://www.w3.org/1999/xlink" xmlns:svgjs="http://svgjs.com/svgjs" width="1920" height="1080" preserveAspectRatio="none" viewBox="0 0 1920 1080"><g mask="url(&quot;#SvgjsMask1029&quot;)" fill="none"><rect width="1920" height="1080" x="0" y="0" fill="rgba(50, 117, 185, 1)"></rect><path d="M0,418.417C100.789,433.368,203.98,504.102,296.411,461.224C388.66,418.431,422.031,303.933,454.518,207.571C484.582,118.393,493.54,23.965,474.923,-68.284C456.987,-157.161,415.899,-240.794,351.211,-304.326C289.394,-365.038,200.781,-379.265,121.864,-415.032C27.837,-457.648,-54.981,-550.516,-156.989,-534.656C-259.345,-518.742,-325.256,-418.578,-387.567,-335.829C-446.551,-257.498,-493.252,-169.955,-504.923,-72.597C-516.429,23.391,-500.698,122.834,-452.602,206.696C-406.703,286.728,-328.383,341.846,-244.814,380.938C-168.49,416.641,-83.35,406.053,0,418.417" fill="#285e94"></path><path d="M1920 1756.1979999999999C2087.375 1757.758 2250.628 1898.911 2405.5389999999998 1835.5140000000001 2561.823 1771.5549999999998 2645.068 1595.992 2700.891 1436.621 2753.784 1285.614 2737.883 1123.968 2709.957 966.421 2682.797 813.192 2661.538 640.713 2542.126 540.925 2425.3450000000003 443.336 2247.688 504.10699999999997 2102.422 458.72799999999995 1953.366 412.16499999999996 1838.943 266.46000000000004 1682.902 272.51700000000005 1515.313 279.02200000000005 1332.634 351.29999999999995 1241.575 492.14200000000005 1151.383 631.642 1215.162 814.331 1225.405 980.1320000000001 1233.616 1113.04 1262.749 1236.127 1295.51 1365.195 1335.98 1524.635 1300.8200000000002 1739.2240000000002 1440.242 1826.519 1580.065 1914.065 1755.038 1754.661 1920 1756.1979999999999" fill="#4c8dcf"></path></g><defs><mask id="SvgjsMask1029"><rect width="1920" height="1080" fill="#ffffff"></rect></mask></defs></svg>