<svg xmlns="http://www.w3.org/2000/svg" version="1.1" xmlns:xlink="http://www.w3.org/1999/xlink" xmlns:svgjs="http://svgjs.com/svgjs" width="1440" height="560" preserveAspectRatio="none" viewBox="0 0 1440 560"><g mask="url(&quot;#SvgjsMask1004&quot;)" fill="none"><rect width="1440" height="560" x="0" y="0" fill="rgba(24, 73, 123, 1)"></rect><path d="M 0,207 C 57.6,248 172.8,449.4 288,412 C 403.2,374.6 460.8,7.4 576,20 C 691.2,32.6 748.8,474 864,475 C 979.2,476 1036.8,59.6 1152,25 C 1267.2,-9.6 1382.4,246.6 1440,302L1440 560L0 560z" fill="rgba(30, 94, 160, 1)"></path><path d="M 0,199 C 96,252.6 288,504.8 480,467 C 672,429.2 768,5.8 960,10 C 1152,14.2 1344,392.4 1440,488L1440 560L0 560z" fill="rgba(47, 137, 234, 1)"></path></g><defs><mask id="SvgjsMask1004"><rect width="1440" height="560" fill="#ffffff"></rect></mask></defs></svg>