<svg xmlns="http://www.w3.org/2000/svg" version="1.1" xmlns:xlink="http://www.w3.org/1999/xlink" xmlns:svgjs="http://svgjs.com/svgjs" width="1920" height="1080" preserveAspectRatio="none" viewBox="0 0 1920 1080"><g mask="url(&quot;#SvgjsMask1056&quot;)" fill="none"><rect width="1920" height="1080" x="0" y="0" fill="rgba(34, 75, 117, 1)"></rect><path d="M0 235.42L10 201.77L20 242.96L30 225.33L40 102.05L50 61.91L60 71.62L70 83.92L80 27.1L90 149.27L100 214.61L110 321.91L120 232.71L130 261.53L140 286.4L150 297.98L160 384.77L170 453.6L180 583.65L190 670.23L200 673.03L210 569.05L220 478.4L230 564.65L240 454.44L250 485.02L260 377.13L270 286.9L280 370.75L290 388.87L300 334.31L310 303.38L320 392.08L330 520.03L340 602.21L350 720.92L360 731.37L370 773.34L380 797.18L390 709.73L400 779.89L410 866.55L420 987.21L430 966.32L440 1055.27L450 976.66L460 861.63L470 851.91L480 818.58L490 707.67L500 800.61L510 726.63L520 804.75L530 731.25L540 752.17L550 668.57L560 567.87L570 591.1L580 659.14L590 649.45L600 532.53L610 484.53L620 376.96L630 308.78L640 176.26L650 292.97L660 304.86L670 427.86L680 388.54L690 425.24L700 558.8L710 493.97L720 485.03L730 379.15L740 459.93L750 477.8L760 597.75L770 564.53L780 543.32L790 542.62L800 416.23L810 457.3L820 448.66L830 328.2L840 350.47L850 376.13L860 277.22L870 178.39L880 104.66L890 97.68L900 61.64L910 184.7L920 227.49L930 349.44L940 436.12L950 380.39L960 456.47L970 483.69L980 374.75L990 381.29L1000 389.69L1010 325.01L1020 229.37L1030 288.69L1040 205.64L1050 217.47L1060 254.99L1070 366.45L1080 354.34L1090 230.42L1100 322.66L1110 350.42L1120 377.04L1130 467.11L1140 492.36L1150 583.86L1160 559.49L1170 602.14L1180 511.66L1190 555.35L1200 599.37L1210 619.87L1220 557.56L1230 628.95L1240 577.89L1250 519.48L1260 403.77L1270 444.17L1280 426.01L1290 482.54L1300 472.36L1310 591.92L1320 574.16L1330 576.27L1340 577.58L1350 556.26L1360 588.64L1370 690.09L1380 603.69L1390 544.63L1400 424.8L1410 366.33L1420 463L1430 476.81L1440 501.19L1450 545.29L1460 641.08L1470 574.14L1480 696.53L1490 681.84L1500 721.43L1510 685.75L1520 710.95L1530 656.89L1540 757.79L1550 732.15L1560 664.41L1570 545.94L1580 452.43L1590 357.77L1600 223.24L1610 99.31L1620 62.14L1630 140.92L1640 257.63L1650 285.2L1660 180.89L1670 240.15L1680 273.84L1690 165.39L1700 198.86L1710 278.02L1720 155.94L1730 253.58L1740 345.4L1750 416.71L1760 299.04L1770 385.27L1780 416.73L1790 423.31L1800 334.85L1810 396.65L1820 473.62L1830 580.96L1840 653.26L1850 684.63L1860 672.72L1870 790.36L1880 701.94L1890 574.3L1900 527.29L1910 552.29L1920 514.47" stroke="rgba(123, 141, 226, 1)" stroke-width="2"></path><path d="M0 235.42L10 201.77L20 242.96L30 225.33L40 102.05L50 61.91L60 71.62L70 83.92L80 27.1L90 149.27L100 214.61L110 321.91L120 232.71L130 261.53L140 286.4L150 297.98L160 384.77L170 453.6L180 583.65L190 670.23L200 673.03L210 569.05L220 478.4L230 564.65L240 454.44L250 485.02L260 377.13L270 286.9L280 370.75L290 388.87L300 334.31L310 303.38L320 392.08L330 520.03L340 602.21L350 720.92L360 731.37L370 773.34L380 797.18L390 709.73L400 779.89L410 866.55L420 987.21L430 966.32L440 1055.27L450 976.66L460 861.63L470 851.91L480 818.58L490 707.67L500 800.61L510 726.63L520 804.75L530 731.25L540 752.17L550 668.57L560 567.87L570 591.1L580 659.14L590 649.45L600 532.53L610 484.53L620 376.96L630 308.78L640 176.26L650 292.97L660 304.86L670 427.86L680 388.54L690 425.24L700 558.8L710 493.97L720 485.03L730 379.15L740 459.93L750 477.8L760 597.75L770 564.53L780 543.32L790 542.62L800 416.23L810 457.3L820 448.66L830 328.2L840 350.47L850 376.13L860 277.22L870 178.39L880 104.66L890 97.68L900 61.64L910 184.7L920 227.49L930 349.44L940 436.12L950 380.39L960 456.47L970 483.69L980 374.75L990 381.29L1000 389.69L1010 325.01L1020 229.37L1030 288.69L1040 205.64L1050 217.47L1060 254.99L1070 366.45L1080 354.34L1090 230.42L1100 322.66L1110 350.42L1120 377.04L1130 467.11L1140 492.36L1150 583.86L1160 559.49L1170 602.14L1180 511.66L1190 555.35L1200 599.37L1210 619.87L1220 557.56L1230 628.95L1240 577.89L1250 519.48L1260 403.77L1270 444.17L1280 426.01L1290 482.54L1300 472.36L1310 591.92L1320 574.16L1330 576.27L1340 577.58L1350 556.26L1360 588.64L1370 690.09L1380 603.69L1390 544.63L1400 424.8L1410 366.33L1420 463L1430 476.81L1440 501.19L1450 545.29L1460 641.08L1470 574.14L1480 696.53L1490 681.84L1500 721.43L1510 685.75L1520 710.95L1530 656.89L1540 757.79L1550 732.15L1560 664.41L1570 545.94L1580 452.43L1590 357.77L1600 223.24L1610 99.31L1620 62.14L1630 140.92L1640 257.63L1650 285.2L1660 180.89L1670 240.15L1680 273.84L1690 165.39L1700 198.86L1710 278.02L1720 155.94L1730 253.58L1740 345.4L1750 416.71L1760 299.04L1770 385.27L1780 416.73L1790 423.31L1800 334.85L1810 396.65L1820 473.62L1830 580.96L1840 653.26L1850 684.63L1860 672.72L1870 790.36L1880 701.94L1890 574.3L1900 527.29L1910 552.29L1920 514.47L1920 1080L0 1080z" fill="url(#SvgjsLinearGradient1057)"></path></g><defs><mask id="SvgjsMask1056"><rect width="1920" height="1080" fill="#ffffff"></rect></mask><linearGradient x1="50%" y1="0%" x2="50%" y2="100%" id="SvgjsLinearGradient1057"><stop stop-opacity="0.65" stop-color="rgba(123, 141, 226, 1)" offset="0"></stop><stop stop-opacity="0" stop-color="#ffffff" offset="0.8"></stop></linearGradient></defs></svg>